<svg xmlns="http://www.w3.org/2000/svg" width="430" height="430" style="width:100%;height:100%;transform:translate3d(0,0,0);content-visibility:visible" viewBox="0 0 430 430"><defs><clipPath id="g"><path d="M0 0h430v430H0z"/></clipPath><clipPath id="n"><path d="M0 0h430v430H0z"/></clipPath><clipPath id="d"><path d="M0 0h430v430H0z"/></clipPath><clipPath id="k"><path d="M0 0h430v430H0z"/></clipPath><clipPath id="e"><path d="M0 0h430v430H0z"/></clipPath><clipPath id="h"><path d="M0 0h430v430H0z"/></clipPath><clipPath id="f"><path d="M0 0h430v430H0z"/></clipPath><filter id="o" width="300%" height="300%" x="-100%" y="-100%"><feGaussianBlur result="filter_result_0"/></filter><filter id="m" width="300%" height="300%" x="-100%" y="-100%"><feGaussianBlur result="filter_result_0" stdDeviation="52.5 52.5"/></filter><filter id="i" width="300%" height="300%" x="-100%" y="-100%"><feGaussianBlur result="filter_result_0"/></filter><mask id="p" mask-type="alpha"><use xmlns:ns1="http://www.w3.org/1999/xlink" ns1:href="#a"/></mask><mask id="l" mask-type="alpha"><use xmlns:ns2="http://www.w3.org/1999/xlink" ns2:href="#b"/></mask><mask id="j" mask-type="alpha"><use xmlns:ns3="http://www.w3.org/1999/xlink" ns3:href="#c"/></mask><g id="a" fill-opacity="0" stroke-linecap="round" stroke-linejoin="round" clip-path="url(#d)" style="display:none"><path class="secondary" style="display:none"/><path class="secondary" style="display:none"/><path class="primary" style="display:none"/></g><g id="b" fill-opacity="0" stroke-linecap="round" stroke-linejoin="round" clip-path="url(#e)" style="display:block"><path stroke="#08A88A" stroke-width="12" d="M375.2 128.4c-2.2-18-10.3-35.5-24.1-49.3-13.8-13.9-31.3-21.9-49.3-24.1m42.3 80c-1.4-12-6.7-23.7-16-32.9s-20.9-14.5-32.9-16M55 301.8c2.2 18 10.3 35.5 24.1 49.3 13.8 13.9 31.3 21.9 49.3 24.1m-42.3-80c1.4 12 6.7 23.7 16 32.9s20.9 14.5 32.9 16" class="secondary" style="display:block"/><path class="secondary" style="display:none"/><path class="secondary" style="display:none"/><path stroke="#121331" stroke-width="12" d="M27.259-138.222c0-5.94 2.475-11.385 6.364-15.274 3.889-3.889 9.333-6.364 15.273-6.364 10.607 0 19.304 8.697 19.304 19.304V6.381M27.259-17.307v-120.915l.071-22.981c0-11.314-9.192-20.506-20.506-20.506-5.657 0-10.748 2.262-14.496 6.01-3.748 3.748-6.011 8.839-6.011 14.496l.001 17.112M-54.624-17.307v-19.516s-.024-29.244-.038-43.865c-.009-9.208-.033-27.624-.033-27.624.071-11.243-9.121-20.435-20.435-20.435a20.528 20.528 0 0 0-14.496 6.01c-3.748 3.748-6.01 8.839-6.01 14.496v90.934m81.954-.071v-126.713c0-10.607-8.697-19.304-19.304-19.304-5.94 0-11.385 2.475-15.274 6.364-3.889 3.889-6.364 9.333-6.364 15.273l.176 32.435m-41.117 91.945v58.266c-.071 41.507 26.233 69.084 26.233 69.084v38.184l131.593.071v-38.184c25.527-16.758 43.982-42.143 52.043-71.559l16.688-61.377c1.344-5.162-.142-10.466-3.748-14.072-1.556-1.556-3.535-2.828-5.798-3.535-11.494-3.776-23.499-1.538-32.644 4.943a36.394 36.394 0 0 0-13.884 19.381L68.2 6.381" class="primary" style="display:block" transform="rotate(-45 369.795 -137.271)"/></g><g id="c" fill-opacity="0" stroke-linecap="round" stroke-linejoin="round" clip-path="url(#f)" style="display:none"><path class="secondary" style="display:none"/><path class="secondary" style="display:none"/><path class="secondary" style="display:none"/><path class="secondary" style="display:none"/><path class="secondary" style="display:none"/><path class="primary" style="display:none"/></g></defs><g clip-path="url(#g)"><g clip-path="url(#h)" filter="url(#i)" mask="url(#j)" style="display:none"><g class="design"><path class="primary"/></g><g class="design"><path class="secondary"/></g></g><g clip-path="url(#k)" mask="url(#l)" style="display:block"><g filter="url(#m)" transform="rotate(-94 238.762 -16.565) scale(2.4)"><g class="design"><path fill="#4BE1EC" d="M0-250c137.975 0 250 112.025 250 250S137.975 250 0 250-250 137.975-250 0-137.975-250 0-250z" class="primary"/></g><g class="design"><path fill="#CB5EEE" d="M113.242-295.384c97.478 0 176.5 79.022 176.5 176.5s-79.022 176.5-176.5 176.5c-43.948 0-74.396-34.057-105.29-60.631-37.631-32.369-71.21-62.338-71.21-115.869 0-97.478 79.022-176.5 176.5-176.5z" class="secondary"/></g></g></g><g clip-path="url(#n)" filter="url(#o)" mask="url(#p)" style="display:none"><g class="design"><path class="primary"/></g><g class="design"><path class="secondary"/></g></g></g></svg>